<svg width="175" height="66" viewBox="0 0 175 66" fill="none" xmlns="http://www.w3.org/2000/svg">
<path d="M86.3391 65.114C85.3291 65.114 84.342 64.8615 83.3779 64.3565C82.4138 63.8515 81.7252 63.0252 81.312 61.8774C81.2661 61.7397 81.312 61.6249 81.4498 61.5331C81.5875 61.4872 81.7023 61.579 81.7941 61.8086C82.2532 62.6808 82.827 63.3236 83.5157 63.7367C84.2502 64.1499 85.0077 64.3565 85.7881 64.3565C85.9718 64.3565 86.1554 64.3336 86.3391 64.2876C86.5686 64.2876 86.7752 64.2647 86.9588 64.2188C88.5197 63.8515 89.7363 62.9333 90.6086 61.4643C91.5268 59.9952 92.1695 58.2736 92.5367 56.2995C92.9499 54.3254 93.2024 52.3284 93.2942 50.3084C93.3861 48.3343 93.409 46.6357 93.3631 45.2125C92.0777 45.9471 90.7463 46.5898 89.369 47.1407C88.0377 47.6916 86.6375 48.1507 85.1684 48.518C84.4797 48.7016 83.6763 48.8623 82.7582 49C81.8859 49.0918 80.9448 49.1377 79.9348 49.1377C78.1443 49.1377 76.3768 48.8164 74.6323 48.1736C72.9337 47.485 71.763 46.1996 71.1203 44.3173C70.9366 43.8582 70.8219 43.3991 70.776 42.94C70.73 42.435 70.7071 41.953 70.7071 41.4939C70.7071 40.1625 70.8907 38.8771 71.258 37.6376C71.6712 36.3521 72.1073 35.2044 72.5664 34.1944C71.5105 33.5517 70.5694 32.7712 69.743 31.853C68.9626 30.9349 68.3657 29.879 67.9526 28.6853C67.7689 28.1344 67.6312 27.5835 67.5394 27.0326C67.4476 26.4817 67.4017 25.9538 67.4017 25.4488C67.4017 23.3829 67.9755 21.5006 69.1232 19.802C70.271 18.0574 71.6941 16.5884 73.3928 15.3947C75.0914 14.2011 76.7671 13.4206 78.4198 13.0534C78.6034 13.0075 79.0166 12.9386 79.6593 12.8468C80.3479 12.755 80.9907 12.7091 81.5875 12.7091C82.322 12.7091 82.7123 12.8009 82.7582 12.9845C82.85 13.1681 82.7811 13.26 82.5516 13.26C81.9088 13.26 81.2891 13.26 80.6923 13.26C80.0955 13.26 79.4757 13.3288 78.833 13.4666C77.2721 13.8338 75.7341 14.5684 74.2191 15.6702C72.75 16.7261 71.5105 18.0345 70.5005 19.5954C69.5364 21.1563 69.0544 22.8779 69.0544 24.7601C69.0544 25.2651 69.1003 25.7931 69.1921 26.344C69.2839 26.849 69.4216 27.3769 69.6053 27.9278C70.2939 29.856 71.5334 31.4399 73.3239 32.6794C74.8389 29.7871 76.5146 27.2622 78.3509 25.1044C80.1873 22.9008 82.1154 20.812 84.1354 18.8379C86.1554 16.8179 88.1984 14.6831 90.2643 12.4336C90.2643 12.0204 90.2413 11.5843 90.1954 11.1252C90.1954 10.6661 90.1954 10.207 90.1954 9.74793C90.1954 8.64612 90.2413 7.54431 90.3331 6.4425C90.4708 5.29478 90.7233 4.30774 91.0906 3.48138C91.3661 2.88456 91.7104 2.28775 92.1236 1.69093C92.5827 1.04821 93.1565 0.726848 93.8451 0.726848C94.3042 0.726848 94.6945 0.88753 95.0158 1.20889C95.3372 1.48435 95.5897 1.85162 95.7733 2.3107C95.957 2.72388 96.0488 3.22888 96.0488 3.8257C96.0488 4.83569 95.7733 5.84569 95.2224 6.85568C94.7174 7.86567 94.1206 8.8068 93.432 9.67907C92.7433 10.5054 92.1236 11.24 91.5727 11.8827C91.5727 13.765 91.7104 15.6931 91.9858 17.6672C92.3072 19.5954 92.6056 21.5006 92.8811 23.3829C93.937 22.0515 95.1765 20.812 96.5997 19.6642C98.0688 18.4706 99.6526 17.6672 101.351 17.254C101.902 17.1163 102.499 17.0474 103.142 17.0474C104.06 17.0474 104.932 17.277 105.758 17.7361C106.631 18.1493 107.273 18.9527 107.687 20.1463C107.962 20.9726 108.1 21.8908 108.1 22.9008C108.1 24.0945 107.939 25.334 107.618 26.6194C107.296 27.859 106.975 28.9378 106.654 29.856C105.598 32.7024 104.152 35.2733 102.315 37.5687C100.479 39.8182 98.3442 41.7464 95.911 43.3532C95.957 44.0878 96.0029 44.8452 96.0488 45.6257C96.0947 46.4062 96.1176 47.1866 96.1176 47.9671C96.1176 50.3543 95.8881 52.7416 95.429 55.1288C95.0158 57.562 94.2354 59.6509 93.0877 61.3954C91.9399 63.1858 90.2413 64.3565 87.9918 64.9074C87.5327 65.0451 86.9818 65.114 86.3391 65.114ZM91.5727 10.9186C91.894 10.5513 92.3072 9.93157 92.8122 9.0593C93.3631 8.14113 93.8451 7.17704 94.2583 6.16705C94.6715 5.15705 94.8781 4.33069 94.8781 3.68797C94.8781 3.41252 94.8551 3.22888 94.8092 3.13706C94.7633 2.99934 94.6945 2.86161 94.6026 2.72388C94.5108 2.58616 94.3731 2.51729 94.1895 2.51729C93.914 2.51729 93.6156 2.72388 93.2942 3.13706C93.0188 3.50433 92.8352 3.82569 92.7433 4.10115C92.3302 4.97342 92.0317 6.09818 91.8481 7.47545C91.7104 8.80681 91.6186 9.95453 91.5727 10.9186ZM78.0066 34.1944C79.5216 34.1944 80.9677 33.8501 82.345 33.1614C83.7682 32.4269 85.0766 31.5317 86.2702 30.4758C87.4638 29.4199 88.4968 28.4099 89.369 27.4458C90.2872 26.4358 90.9758 25.6554 91.4349 25.1044C91.2054 23.1304 90.9758 21.1792 90.7463 19.2511C90.5627 17.277 90.402 15.3029 90.2643 13.3288C89.1624 14.5225 88.0377 15.6931 86.89 16.8409C85.7422 17.9886 84.6404 19.1822 83.5845 20.4217C82.3909 21.799 81.2661 23.2681 80.2102 24.829C79.2002 26.344 78.2591 27.9278 77.3868 29.5806C77.0196 30.2233 76.6752 30.889 76.3539 31.5776C76.0325 32.2662 75.7112 32.9778 75.3898 33.7124C76.2162 34.0337 77.0884 34.1944 78.0066 34.1944ZM95.7045 42.3203C97.8622 40.943 99.7444 39.3362 101.351 37.4998C103.004 35.6176 104.289 33.4139 105.208 30.889C105.621 29.7412 105.919 28.7083 106.103 27.7901C106.286 26.826 106.378 25.9538 106.378 25.1733C106.378 23.337 105.942 21.9597 105.07 21.0415C104.198 20.1233 103.073 19.6642 101.696 19.6642C100.456 19.6642 99.0788 20.0545 97.5638 20.8349C96.0488 21.5695 94.5338 22.6942 93.0188 24.2092C93.4779 27.2392 93.9829 30.2692 94.5338 33.2992C95.1306 36.3292 95.5208 39.3362 95.7045 42.3203ZM82.4827 47.1407C83.2632 47.1407 84.0207 47.0948 84.7552 47.003C85.5356 46.8652 86.2243 46.7275 86.8211 46.5898C89.1165 46.0389 91.2513 45.2125 93.2254 44.1107C93.1795 41.0807 92.9729 38.0507 92.6056 35.0208C92.2842 31.9449 91.9399 28.869 91.5727 25.7931C91.0677 26.6653 90.3561 27.6753 89.4379 28.8231C88.5197 29.9249 87.4409 31.0037 86.2013 32.0596C84.9618 33.0696 83.6075 33.9189 82.1384 34.6076C80.7152 35.2962 79.2232 35.6405 77.6623 35.6405C76.7441 35.6405 75.8259 35.5028 74.9078 35.2273C74.7241 35.8701 74.5405 36.5817 74.3568 37.3621C74.2191 38.1426 74.1503 38.923 74.1503 39.7035C74.1503 40.6675 74.288 41.6316 74.5634 42.5957C75.2062 44.3403 76.285 45.5339 77.8 46.1766C79.3609 46.8193 80.9218 47.1407 82.4827 47.1407Z" fill="#FFA55C"/>
<path d="M5.85833 50.1969C5.25689 50.1969 4.7364 49.8499 4.29688 49.1559C3.85736 48.4851 3.54507 47.3863 3.36001 45.8595C3.33688 45.7439 3.32532 45.6051 3.32532 45.4431C3.32532 45.2581 3.32532 45.073 3.32532 44.888C3.32532 44.1246 3.37158 43.1646 3.46411 42.0079C3.55664 40.8282 3.6723 39.5328 3.8111 38.1217C3.94989 36.7106 4.07712 35.2648 4.19279 33.7843C4.33158 32.2807 4.44724 30.8118 4.53978 29.3776C4.63231 27.9433 4.67857 26.6364 4.67857 25.4566C4.67857 23.9992 4.58604 22.8195 4.40098 21.9173C4.21592 21.0151 3.8805 20.5641 3.39471 20.5641C3.09399 20.5641 2.79327 20.7375 2.49254 21.0845C2.21495 21.4084 1.96049 21.7785 1.72917 22.1949C1.52097 22.5882 1.34748 22.912 1.20868 23.1665C1.09302 23.3978 1.02362 23.4325 1.00049 23.2706C0.977359 23.178 0.954226 23.0971 0.931094 23.0277C0.931094 22.9351 0.931094 22.8426 0.931094 22.7501C0.931094 22.3106 1.03519 21.8479 1.24338 21.3621C1.45158 20.8763 1.74073 20.4715 2.11085 20.1477C2.48098 19.8007 2.89736 19.6272 3.36001 19.6272C3.45254 19.6272 3.53351 19.6388 3.60291 19.6619C3.6723 19.6619 3.7417 19.6734 3.8111 19.6966C4.71327 19.9279 5.32628 20.6681 5.65014 21.9173C5.97399 23.1665 6.13592 24.6817 6.13592 26.4629C6.13592 27.8045 6.06652 29.2272 5.92773 30.7308C5.81207 32.2344 5.67327 33.7496 5.51134 35.2764C5.37255 36.78 5.23375 38.2142 5.09496 39.579C4.97929 40.9439 4.92146 42.1467 4.92146 43.1877C4.92146 43.4884 4.92146 43.7776 4.92146 44.0552C4.9446 44.3096 4.96773 44.5525 4.99086 44.7839C5.17592 46.2412 5.43038 47.259 5.75424 47.8374C6.07809 48.4388 6.44821 48.7395 6.8646 48.7395C7.32725 48.7395 7.80147 48.4851 8.28725 47.9762C8.79617 47.4672 9.29352 46.8311 9.7793 46.0677C10.2651 45.3043 10.7046 44.541 11.0979 43.7776C11.6299 42.7829 12.1157 41.6147 12.5552 40.273C12.9947 38.9313 13.388 37.5665 13.735 36.1785C14.1051 34.7906 14.3943 33.5183 14.6024 32.3617C14.3711 31.9684 14.2323 31.5636 14.1861 31.1472C14.1398 30.7308 14.1167 30.1988 14.1167 29.5511C14.1167 28.8571 14.2439 28.3135 14.4983 27.9202C14.7528 27.527 15.0188 27.3303 15.2964 27.3303C15.7128 27.3303 15.9904 27.6773 16.1292 28.3713C16.3837 29.5279 16.6381 30.754 16.8926 32.0494C17.147 33.3217 17.4246 34.5708 17.7253 35.7969C18.0492 37.0229 18.4193 38.1564 18.8357 39.1973C19.6916 41.2561 20.4781 42.7366 21.1952 43.6388C21.9123 44.5178 22.5716 44.9574 23.1731 44.9574C23.7976 44.9574 24.3413 44.5641 24.8039 43.7776C25.2897 42.968 25.6945 41.9154 26.0184 40.62C26.3422 39.3014 26.5851 37.8788 26.747 36.352C26.909 34.8022 26.9899 33.287 26.9899 31.8065C26.9899 30.5805 26.9321 29.4354 26.8164 28.3713C26.7239 27.3072 26.5504 26.4397 26.296 25.7689C26.2034 25.4913 26.134 25.2021 26.0878 24.9014C26.0415 24.6007 26.0184 24.3231 26.0184 24.0686C26.0184 23.7448 26.0531 23.4672 26.1225 23.2359C26.215 23.0045 26.3422 22.8889 26.5042 22.8889C26.6892 22.8889 26.8743 23.0277 27.0593 23.3053C27.3138 23.6291 27.5451 24.0802 27.7533 24.6585C27.9846 25.2137 28.1813 25.6995 28.3432 26.1159C28.5283 26.5785 28.7711 27.1453 29.0719 27.8161C29.3726 28.4638 29.6849 29.0653 30.0087 29.6205C30.3557 30.1525 30.6912 30.4764 31.015 30.592C31.0613 30.6152 31.0844 30.6614 31.0844 30.7308C31.0844 30.8696 30.9803 30.9853 30.7721 31.0778C30.5639 31.1703 30.4136 31.205 30.321 31.1819C29.789 30.9274 29.3379 30.6614 28.9678 30.3838C28.6208 30.0831 28.216 29.5395 27.7533 28.753C27.7764 29.1694 27.788 29.5973 27.788 30.0368C27.788 30.4532 27.788 30.8696 27.788 31.286C27.788 32.4889 27.7417 33.6918 27.6492 34.8947C27.5798 36.0976 27.4295 37.312 27.1981 38.5381C26.6892 41.1983 26.0415 43.0952 25.255 44.2287C24.4916 45.3622 23.682 45.9289 22.8261 45.9289C22.1321 45.9289 21.4381 45.6282 20.7441 45.0268C20.0733 44.4022 19.4487 43.581 18.8704 42.5631C18.2921 41.5453 17.7947 40.4118 17.3784 39.1626C17.0082 37.9597 16.6959 36.861 16.4415 35.8663C16.187 34.8484 15.9904 33.9578 15.8516 33.1944C15.4815 34.86 14.9957 36.514 14.3943 38.1564C13.8159 39.7988 13.1682 41.3487 12.4511 42.806C11.734 44.2402 10.9822 45.5125 10.1957 46.6229C9.43231 47.7333 8.66894 48.6007 7.90557 49.2253C7.16532 49.873 6.48291 50.1969 5.85833 50.1969ZM30.7613 45.9636C30.3449 45.9636 30.0442 45.7901 29.8591 45.4431C29.674 45.073 29.5815 44.6451 29.5815 44.1593C29.5815 43.5347 29.6856 42.806 29.8938 41.9733C30.1251 41.1405 30.4258 40.2846 30.796 39.4055C31.1661 38.5034 31.5825 37.6822 32.0451 36.9419C32.5309 36.1785 33.0398 35.5655 33.5719 35.1029C34.1039 34.6171 34.6244 34.3742 35.1333 34.3742C35.596 34.3742 35.9892 34.5824 36.3131 34.9988C36.6601 35.392 36.8336 35.8431 36.8336 36.352C36.8336 36.6528 36.7873 36.9072 36.6948 37.1154C36.6022 37.3005 36.4981 37.393 36.3825 37.393C36.29 37.393 36.209 37.3236 36.1396 37.1848C35.9083 36.6528 35.6538 36.2711 35.3762 36.0397C35.1218 35.8084 34.8557 35.6928 34.5781 35.6928C34.1155 35.6928 33.6528 35.9588 33.1902 36.4908C32.7507 36.9997 32.3921 37.5896 32.1145 38.2605C31.8832 38.7694 31.6634 39.3824 31.4552 40.0995C31.2702 40.7935 31.1083 41.4875 30.9695 42.1814C30.8538 42.8523 30.796 43.4075 30.796 43.847C30.796 44.6335 30.981 45.0268 31.3512 45.0268C31.8138 45.0268 32.4037 44.5178 33.1208 43.5C33.6528 42.7598 34.1271 41.9039 34.5434 40.9323C34.983 39.9607 35.3531 39.1164 35.6538 38.3993C35.7695 38.1679 35.8967 38.0176 36.0355 37.9482C36.1743 37.8788 36.3015 37.8441 36.4172 37.8441C36.6948 37.8441 36.8683 37.9597 36.9377 38.1911C37.0302 38.4224 37.0765 38.619 37.0765 38.781C37.0765 39.3824 37.0186 39.926 36.903 40.4118C36.7873 40.8745 36.7295 41.4412 36.7295 42.112C36.7295 42.5978 36.7642 43.0489 36.8336 43.4653C36.9261 43.8586 37.0765 44.0552 37.2847 44.0552C37.5391 44.0552 37.863 43.7313 38.2562 43.0836C38.3488 42.8986 38.4876 42.806 38.6726 42.806C38.8808 42.806 38.9849 42.9101 38.9849 43.1183C38.9849 43.419 38.7767 43.7429 38.3603 44.0899C37.9439 44.4137 37.5275 44.5757 37.1112 44.5757C36.556 44.5757 36.1627 44.3443 35.9314 43.8817C35.5381 43.1183 35.3415 42.4359 35.3415 41.8345C35.3415 41.2099 35.33 40.7819 35.3068 40.5506C35.1912 40.8282 34.9714 41.2677 34.6475 41.8692C34.3237 42.4475 33.942 43.0605 33.5025 43.7082C33.063 44.3328 32.6003 44.8648 32.1145 45.3043C31.6287 45.7439 31.1777 45.9636 30.7613 45.9636ZM37.0659 51.2725C36.8346 51.2725 36.6495 51.2031 36.5107 51.0644C36.3488 50.9256 36.3256 50.7636 36.4413 50.5786C36.7652 50.0928 37.0775 49.3988 37.3782 48.4966C37.6558 47.6176 37.8987 46.6923 38.1069 45.7207C38.3382 44.7492 38.5232 43.8701 38.662 43.0836C38.824 42.274 38.9396 41.7072 39.009 41.3834C38.5926 40.9901 38.3844 40.5506 38.3844 40.0648C38.3844 39.6947 38.4654 39.3824 38.6273 39.1279C38.8124 38.8735 38.9512 38.7578 39.0437 38.781C39.09 38.781 39.1478 38.8041 39.2172 38.8504C39.3098 38.8735 39.356 38.9082 39.356 38.9545C39.4948 37.8672 39.6105 36.7916 39.703 35.7275C39.7955 34.6402 39.8418 33.6455 39.8418 32.7434C39.8418 32.0031 39.8071 31.3438 39.7377 30.7655C39.6683 30.1872 39.5642 29.7246 39.4254 29.3776C39.2866 29.0306 39.2172 28.7646 39.2172 28.5795C39.2172 28.325 39.2866 28.1978 39.4254 28.1978C39.5873 28.1978 39.7146 28.3019 39.8071 28.5101C40.0616 29.019 40.2466 29.8171 40.3623 30.9043C40.5011 31.9915 40.5705 33.2291 40.5705 34.6171C40.5705 35.5655 40.5473 36.5718 40.5011 37.6359C40.4548 38.6769 40.3738 39.7178 40.2582 40.7588C40.6746 40.3887 41.1025 40.0301 41.542 39.6831C41.9816 39.313 42.3633 38.9313 42.6871 38.5381V38.5034C42.6871 38.4571 42.664 38.4108 42.6177 38.3646C42.5946 38.3183 42.583 38.2489 42.583 38.1564C42.583 37.9944 42.6987 37.7978 42.93 37.5665C43.1613 37.3352 43.462 37.0113 43.8322 36.5949C44.2254 36.1554 44.6302 35.7622 45.0466 35.4152C45.463 35.045 45.8447 34.8716 46.1917 34.8947C46.4693 34.8947 46.6081 34.9872 46.6081 35.1723C46.6081 35.3805 46.4115 35.6928 46.0182 36.1091C45.6249 36.5255 45.1507 36.965 44.5955 37.4277C44.0635 37.8904 43.5661 38.3183 43.1035 38.7116C42.664 39.0817 42.3748 39.3361 42.236 39.4749L40.9175 40.9323L40.2235 41.661C40.5242 42.4243 40.8712 43.1761 41.2645 43.9164C41.6577 44.6566 42.0972 45.2696 42.583 45.7554C43.0919 46.2412 43.6124 46.4841 44.1445 46.4841C44.6996 46.4841 45.2664 46.1487 45.8447 45.4778C46.238 44.9921 46.5734 44.4484 46.851 43.847C47.1286 43.2455 47.3599 42.7945 47.5449 42.4937C47.6606 42.2624 47.7763 42.112 47.8919 42.0426C48.0076 41.9501 48.1001 41.9039 48.1695 41.9039C48.3315 41.9039 48.3893 42.0195 48.343 42.2508C48.2505 42.5516 48.0886 42.9333 47.8572 43.3959C47.6259 43.8586 47.3946 44.2981 47.1633 44.7145C46.9551 45.1077 46.7931 45.3853 46.6775 45.5472C46.238 46.1949 45.7984 46.6692 45.3589 46.9699C44.9194 47.2706 44.4914 47.421 44.0751 47.421C43.543 47.421 43.0225 47.2243 42.5136 46.8311C42.0047 46.4378 41.5305 45.9289 41.091 45.3043C40.6746 44.6798 40.2929 44.0205 39.9459 43.3265C39.6914 45.0846 39.3791 46.6576 39.009 48.0456C38.6389 49.4566 38.2341 50.4282 37.7946 50.9603C37.5864 51.1684 37.3435 51.2725 37.0659 51.2725ZM50.7299 46.6923C49.8972 46.6923 49.1685 46.2065 48.5439 45.2349C47.9424 44.2402 47.6417 42.6788 47.6417 40.5506C47.6417 39.1626 47.8152 38.0523 48.1622 37.2195C48.5092 36.3636 48.9371 35.739 49.4461 35.3458C49.955 34.9525 50.4408 34.7559 50.9034 34.7559C51.3661 34.7559 51.7593 34.9178 52.0832 35.2417C52.407 35.5424 52.569 35.9819 52.569 36.5602C52.569 37.1154 52.407 37.7053 52.0832 38.3299C51.7593 38.9313 51.3661 39.4865 50.9034 39.9954C50.4639 40.4812 50.0244 40.8051 49.5849 40.967C49.4923 41.0132 49.3767 41.0364 49.2379 41.0364C49.1453 41.0364 49.0991 41.0017 49.0991 40.9323C49.0991 40.7472 49.2841 40.539 49.6543 40.3077C50.1169 39.9838 50.5564 39.4981 50.9728 38.8504C51.3892 38.1795 51.5974 37.5896 51.5974 37.0807C51.5974 36.78 51.528 36.5487 51.3892 36.3867C51.2504 36.2017 51.0885 36.1091 50.9034 36.1091C50.5564 36.1091 50.1747 36.3867 49.7584 36.9419C49.3651 37.474 49.0759 38.3993 48.8909 39.7178C48.8446 40.0879 48.7984 40.4465 48.7521 40.7935C48.729 41.1173 48.7174 41.4412 48.7174 41.7651C48.7174 43.0605 48.914 44.0783 49.3073 44.8186C49.7005 45.5357 50.221 45.8942 50.8687 45.8942C51.4239 45.8942 52.0485 45.5704 52.7425 44.9227C53.4364 44.2518 54.1188 43.2108 54.7897 41.7998C54.9516 41.4296 55.1367 41.2446 55.3449 41.2446C55.4837 41.2446 55.5531 41.3371 55.5531 41.5222C55.5531 41.6841 55.5068 41.8576 55.4143 42.0426C54.8128 43.5231 54.0841 44.6682 53.2282 45.4778C52.3723 46.2875 51.5396 46.6923 50.7299 46.6923ZM73.3799 59.2533C72.3158 59.2533 71.2864 58.8138 70.2917 57.9347C69.3201 57.0557 68.4989 55.7834 67.8281 54.1179C67.1803 52.4523 66.7987 50.4398 66.683 48.0803C65.9659 48.1496 65.3066 48.1843 64.7052 48.1843C63.3635 48.1843 62.3803 48.0109 61.7558 47.6639C61.1543 47.3169 60.8536 46.8658 60.8536 46.3106C60.8536 45.7554 61.1196 45.1424 61.6517 44.4716C62.1837 43.8007 62.9239 43.1299 63.8724 42.459C64.8208 41.7651 65.9312 41.1405 67.2035 40.5853C67.643 38.2258 68.3485 35.6812 69.3201 32.9515C70.3148 30.1988 71.6449 27.2841 73.3105 24.2074C73.4724 23.9067 73.7153 23.7563 74.0392 23.7563C74.2473 23.7563 74.4324 23.8257 74.5943 23.9645C74.7563 24.1033 74.8372 24.2884 74.8372 24.5197C74.8372 24.6354 74.8025 24.7857 74.7331 24.9708C73.2526 27.9549 72.0151 30.6961 71.0204 33.1944C70.0488 35.6696 69.2854 37.9366 68.7302 39.9954C69.7712 39.6022 70.8816 39.2783 72.0613 39.0238C73.2411 38.7694 74.444 38.619 75.67 38.5728C75.9939 38.5728 76.1558 38.619 76.1558 38.7116C76.1558 38.8041 76.0401 38.8966 75.8088 38.9891C75.6006 39.0585 75.242 39.1048 74.7331 39.1279C73.5996 39.1973 72.5124 39.3593 71.4714 39.6137C70.4536 39.8451 69.4936 40.1342 68.5914 40.4812C68.2444 41.8229 67.9784 43.072 67.7934 44.2287C67.6083 45.3622 67.4926 46.4147 67.4464 47.3863C69.829 46.8774 71.9919 46.1371 73.9351 45.1655C75.9013 44.1708 77.6363 43.0258 79.1399 41.7304C80.6435 40.4349 81.9042 39.0932 82.9221 37.7053C83.5698 36.8263 84.0324 36.0513 84.31 35.3805C84.6107 34.6865 84.7611 34.085 84.7611 33.5761C84.7611 32.8359 84.5298 32.2576 84.0671 31.8412C83.6045 31.4017 82.9915 31.0894 82.2281 30.9043C81.4647 30.6961 80.6319 30.592 79.7298 30.592C78.7813 30.592 77.8213 30.6846 76.8498 30.8696C75.8782 31.0315 74.9992 31.2629 74.2126 31.5636C74.0276 31.6099 73.9004 31.633 73.831 31.633C73.5302 31.633 73.3799 31.5289 73.3799 31.3207C73.3799 31.1125 73.5071 30.9506 73.7616 30.8349C76.6069 29.2156 78.631 27.7467 79.8339 26.4282C81.0368 25.1096 81.6382 23.9992 81.6382 23.0971C81.6382 22.3106 81.2681 21.7091 80.5278 21.2927C79.8107 20.8532 78.8623 20.6335 77.6825 20.6335C76.7572 20.6335 75.7163 20.7838 74.5596 21.0845C73.403 21.3853 72.2117 21.871 70.9857 22.5419C69.9678 23.0971 69.0425 23.7563 68.2097 24.5197C67.4001 25.26 66.7061 26.0349 66.1278 26.8445C65.5726 27.6311 65.1562 28.3829 64.8787 29.1C64.6011 29.794 64.497 30.3838 64.5664 30.8696C64.5664 30.9159 64.5664 30.9737 64.5664 31.0431C64.5895 31.0894 64.6011 31.1356 64.6011 31.1819C64.6011 31.7602 64.4276 32.0494 64.0806 32.0494C63.9187 32.0494 63.7452 31.9337 63.5601 31.7024C63.3982 31.4711 63.3172 31.1241 63.3172 30.6614C63.3172 29.9674 63.5254 29.2272 63.9418 28.4407C64.3813 27.6542 64.9596 26.8677 65.6767 26.0812C66.417 25.2715 67.2382 24.5197 68.1403 23.8257C69.0425 23.1086 69.9794 22.4956 70.951 21.9867C72.2001 21.3159 73.4261 20.8185 74.629 20.4947C75.8551 20.1708 76.977 20.0089 77.9948 20.0089C79.4059 20.0089 80.551 20.2865 81.43 20.8416C82.309 21.3968 82.7486 22.1718 82.7486 23.1665C82.7486 24.0918 82.2975 25.1674 81.3953 26.3935C80.4931 27.6195 78.978 28.9727 76.8498 30.4532C77.5669 30.3376 78.2377 30.2566 78.8623 30.2103C79.4869 30.1409 80.0652 30.1062 80.5972 30.1062C82.5866 30.1062 84.0209 30.4417 84.8999 31.1125C85.8021 31.7602 86.2532 32.6046 86.2532 33.6455C86.2532 34.4089 86.0334 35.2417 85.5939 36.1438C85.1775 37.0229 84.5876 37.9366 83.8242 38.8851C82.7139 40.2499 81.3143 41.5684 79.6257 42.8407C77.9601 44.113 76.0864 45.2118 74.0045 46.1371C71.9457 47.0624 69.7481 47.687 67.4117 48.0109C67.3654 50.0697 67.5505 51.7699 67.9669 53.1116C68.4064 54.4533 68.9616 55.4942 69.6324 56.2345C70.3032 56.9979 70.9741 57.5299 71.6449 57.8306C72.3158 58.1545 72.871 58.3164 73.3105 58.3164C73.6343 58.3164 73.8541 58.2586 73.9698 58.1429C74.0623 58.0273 74.2011 57.9694 74.3861 57.9694C74.5712 57.9694 74.7447 58.0388 74.9066 58.1776C75.0686 58.3164 75.1495 58.4668 75.1495 58.6287C75.1495 58.7675 75.0686 58.8716 74.9066 58.941C74.3977 59.1492 73.8888 59.2533 73.3799 59.2533ZM64.844 47.7333C65.0984 47.7333 65.376 47.7101 65.6767 47.6639C65.9774 47.6407 66.3013 47.606 66.6483 47.5598C66.6252 46.5882 66.6483 45.5704 66.7177 44.5063C66.7871 43.4422 66.9143 42.3318 67.0994 41.1752C65.6189 41.9386 64.4507 42.7945 63.5948 43.7429C62.7389 44.6682 62.3109 45.4894 62.3109 46.2065C62.3109 46.646 62.5191 47.0046 62.9355 47.2822C63.3519 47.5829 63.988 47.7333 64.844 47.7333ZM87.8585 45.9636C87.4421 45.9636 87.1414 45.7901 86.9563 45.4431C86.7713 45.073 86.6788 44.6451 86.6788 44.1593C86.6788 43.5347 86.7828 42.806 86.991 41.9733C87.2224 41.1405 87.5231 40.2846 87.8932 39.4055C88.2633 38.5034 88.6797 37.6822 89.1424 36.9419C89.6282 36.1785 90.1371 35.5655 90.6691 35.1029C91.2012 34.6171 91.7217 34.3742 92.2306 34.3742C92.6932 34.3742 93.0865 34.5824 93.4103 34.9988C93.7573 35.392 93.9308 35.8431 93.9308 36.352C93.9308 36.6528 93.8845 36.9072 93.792 37.1154C93.6995 37.3005 93.5954 37.393 93.4797 37.393C93.3872 37.393 93.3062 37.3236 93.2368 37.1848C93.0055 36.6528 92.7511 36.2711 92.4735 36.0397C92.219 35.8084 91.953 35.6928 91.6754 35.6928C91.2127 35.6928 90.7501 35.9588 90.2874 36.4908C89.8479 36.9997 89.4894 37.5896 89.2118 38.2605C88.9804 38.7694 88.7607 39.3824 88.5525 40.0995C88.3674 40.7935 88.2055 41.4875 88.0667 42.1814C87.951 42.8523 87.8932 43.4075 87.8932 43.847C87.8932 44.6335 88.0783 45.0268 88.4484 45.0268C88.911 45.0268 89.5009 44.5178 90.218 43.5C90.7501 42.7598 91.2243 41.9039 91.6407 40.9323C92.0802 39.9607 92.4503 39.1164 92.7511 38.3993C92.8667 38.1679 92.9939 38.0176 93.1327 37.9482C93.2715 37.8788 93.3988 37.8441 93.5144 37.8441C93.792 37.8441 93.9655 37.9597 94.0349 38.1911C94.1274 38.4224 94.1737 38.619 94.1737 38.781C94.1737 39.3824 94.1159 39.926 94.0002 40.4118C93.8845 40.8745 93.8267 41.4412 93.8267 42.112C93.8267 42.5978 93.8614 43.0489 93.9308 43.4653C94.0233 43.8586 94.1737 44.0552 94.3819 44.0552C94.6364 44.0552 94.9602 43.7313 95.3535 43.0836C95.446 42.8986 95.5848 42.806 95.7699 42.806C95.978 42.806 96.0821 42.9101 96.0821 43.1183C96.0821 43.419 95.8739 43.7429 95.4576 44.0899C95.0412 44.4137 94.6248 44.5757 94.2084 44.5757C93.6532 44.5757 93.26 44.3443 93.0286 43.8817C92.6354 43.1183 92.4388 42.4359 92.4388 41.8345C92.4388 41.2099 92.4272 40.7819 92.4041 40.5506C92.2884 40.8282 92.0686 41.2677 91.7448 41.8692C91.4209 42.4475 91.0392 43.0605 90.5997 43.7082C90.1602 44.3328 89.6976 44.8648 89.2118 45.3043C88.726 45.7439 88.2749 45.9636 87.8585 45.9636ZM94.1631 51.2725C93.9318 51.2725 93.7468 51.2031 93.608 51.0644C93.446 50.9256 93.4229 50.7636 93.5386 50.5786C93.8624 50.0928 94.1747 49.3988 94.4754 48.4966C94.753 47.6176 94.9959 46.6923 95.2041 45.7207C95.4354 44.7492 95.6205 43.8701 95.7593 43.0836C95.9212 42.274 96.0369 41.7072 96.1063 41.3834C95.6899 40.9901 95.4817 40.5506 95.4817 40.0648C95.4817 39.6947 95.5627 39.3824 95.7246 39.1279C95.9096 38.8735 96.0484 38.7578 96.141 38.781C96.1872 38.781 96.2451 38.8041 96.3145 38.8504C96.407 38.8735 96.4533 38.9082 96.4533 38.9545C96.5921 37.8672 96.7077 36.7916 96.8003 35.7275C96.8928 34.6402 96.939 33.6455 96.939 32.7434C96.939 32.0031 96.9043 31.3438 96.835 30.7655C96.7656 30.1872 96.6615 29.7246 96.5227 29.3776C96.3839 29.0306 96.3145 28.7646 96.3145 28.5795C96.3145 28.325 96.3839 28.1978 96.5227 28.1978C96.6846 28.1978 96.8118 28.3019 96.9043 28.5101C97.1588 29.019 97.3439 29.8171 97.4595 30.9043C97.5983 31.9915 97.6677 33.2291 97.6677 34.6171C97.6677 35.5655 97.6446 36.5718 97.5983 37.6359C97.5521 38.6769 97.4711 39.7178 97.3554 40.7588C97.7718 40.3887 98.1998 40.0301 98.6393 39.6831C99.0788 39.313 99.4605 38.9313 99.7844 38.5381V38.5034C99.7844 38.4571 99.7612 38.4108 99.715 38.3646C99.6918 38.3183 99.6803 38.2489 99.6803 38.1564C99.6803 37.9944 99.7959 37.7978 100.027 37.5665C100.259 37.3352 100.559 37.0113 100.929 36.5949C101.323 36.1554 101.727 35.7622 102.144 35.4152C102.56 35.045 102.942 34.8716 103.289 34.8947C103.567 34.8947 103.705 34.9872 103.705 35.1723C103.705 35.3805 103.509 35.6928 103.115 36.1091C102.722 36.5255 102.248 36.965 101.693 37.4277C101.161 37.8904 100.663 38.3183 100.201 38.7116C99.7612 39.0817 99.4721 39.3361 99.3333 39.4749L98.0147 40.9323L97.3207 41.661C97.6215 42.4243 97.9684 43.1761 98.3617 43.9164C98.755 44.6566 99.1945 45.2696 99.6803 45.7554C100.189 46.2412 100.71 46.4841 101.242 46.4841C101.797 46.4841 102.364 46.1487 102.942 45.4778C103.335 44.9921 103.671 44.4484 103.948 43.847C104.226 43.2455 104.457 42.7945 104.642 42.4937C104.758 42.2624 104.874 42.112 104.989 42.0426C105.105 41.9501 105.197 41.9039 105.267 41.9039C105.429 41.9039 105.487 42.0195 105.44 42.2508C105.348 42.5516 105.186 42.9333 104.954 43.3959C104.723 43.8586 104.492 44.2981 104.261 44.7145C104.052 45.1077 103.89 45.3853 103.775 45.5472C103.335 46.1949 102.896 46.6692 102.456 46.9699C102.017 47.2706 101.589 47.421 101.172 47.421C100.64 47.421 100.12 47.2243 99.6109 46.8311C99.1019 46.4378 98.6277 45.9289 98.1882 45.3043C97.7718 44.6798 97.3901 44.0205 97.0431 43.3265C96.7887 45.0846 96.4764 46.6576 96.1063 48.0456C95.7362 49.4566 95.3313 50.4282 94.8918 50.9603C94.6836 51.1684 94.4407 51.2725 94.1631 51.2725ZM107.827 46.6923C106.994 46.6923 106.266 46.2065 105.641 45.2349C105.04 44.2402 104.739 42.6788 104.739 40.5506C104.739 39.1626 104.912 38.0523 105.259 37.2195C105.606 36.3636 106.034 35.739 106.543 35.3458C107.052 34.9525 107.538 34.7559 108.001 34.7559C108.463 34.7559 108.857 34.9178 109.18 35.2417C109.504 35.5424 109.666 35.9819 109.666 36.5602C109.666 37.1154 109.504 37.7053 109.18 38.3299C108.857 38.9313 108.463 39.4865 108.001 39.9954C107.561 40.4812 107.122 40.8051 106.682 40.967C106.59 41.0132 106.474 41.0364 106.335 41.0364C106.243 41.0364 106.196 41.0017 106.196 40.9323C106.196 40.7472 106.381 40.539 106.752 40.3077C107.214 39.9838 107.654 39.4981 108.07 38.8504C108.486 38.1795 108.695 37.5896 108.695 37.0807C108.695 36.78 108.625 36.5487 108.486 36.3867C108.348 36.2017 108.186 36.1091 108.001 36.1091C107.654 36.1091 107.272 36.3867 106.856 36.9419C106.462 37.474 106.173 38.3993 105.988 39.7178C105.942 40.0879 105.896 40.4465 105.849 40.7935C105.826 41.1173 105.815 41.4412 105.815 41.7651C105.815 43.0605 106.011 44.0783 106.405 44.8186C106.798 45.5357 107.318 45.8942 107.966 45.8942C108.521 45.8942 109.146 45.5704 109.84 44.9227C110.534 44.2518 111.216 43.2108 111.887 41.7998C112.049 41.4296 112.234 41.2446 112.442 41.2446C112.581 41.2446 112.65 41.3371 112.65 41.5222C112.65 41.6841 112.604 41.8576 112.512 42.0426C111.91 43.5231 111.181 44.6682 110.325 45.4778C109.47 46.2875 108.637 46.6923 107.827 46.6923Z" fill="#1F1711"/>
</svg>
