<svg width="1323" height="353" viewBox="0 0 1323 353" fill="none" xmlns="http://www.w3.org/2000/svg">
<path d="M76.1188 263V98.3L39.5188 107.3L29.9188 69.5L90.2188 51.5H121.719V263H76.1188Z" fill="url(#paint0_linear_2210_5)" fill-opacity="0.37"/>
<path d="M494.243 263V226.4L564.143 169.1C577.943 157.7 587.443 148.6 592.643 141.8C597.843 134.8 600.443 127.1 600.443 118.7C600.443 110.1 597.843 103.4 592.643 98.6C587.443 93.8 580.643 91.4 572.243 91.4C564.443 91.4 557.343 93.6 550.943 98C544.743 102.2 537.543 109.4 529.343 119.6L496.943 93.5C507.943 78.5 519.243 67.5 530.843 60.5C542.643 53.5 557.443 50 575.243 50C597.043 50 614.543 56 627.743 68C640.943 79.8 647.543 95.6 647.543 115.4C647.543 126.8 645.343 137.1 640.943 146.3C636.543 155.3 630.843 163.3 623.843 170.3C616.843 177.1 606.343 185.9 592.343 196.7L558.143 223.1H649.643V263H494.243Z" fill="url(#paint1_linear_2210_5)" fill-opacity="0.37"/>
<path d="M1237.14 265.6C1202.94 265.6 1175.64 253.5 1155.24 229.3L1187.04 199C1202.04 215.8 1218.94 224.2 1237.74 224.2C1246.54 224.2 1253.64 221.9 1259.04 217.3C1264.64 212.5 1267.44 206.1 1267.44 198.1C1267.44 189.5 1263.84 182.9 1256.64 178.3C1249.44 173.7 1239.34 171.4 1226.34 171.4H1207.14L1199.94 142L1250.04 91.6H1167.54V52H1309.44V86.8L1256.34 137.5C1293.94 143.9 1312.74 163.7 1312.74 196.9C1312.74 217.1 1305.84 233.6 1292.04 246.4C1278.44 259.2 1260.14 265.6 1237.14 265.6Z" fill="url(#paint2_linear_2210_5)" fill-opacity="0.37"/>
<defs>
<linearGradient id="paint0_linear_2210_5" x1="86" y1="1" x2="86" y2="353" gradientUnits="userSpaceOnUse">
<stop stop-color="#3D4F3B"/>
<stop offset="1" stop-color="#3D4F3B" stop-opacity="0"/>
</linearGradient>
<linearGradient id="paint1_linear_2210_5" x1="573" y1="1" x2="573" y2="353" gradientUnits="userSpaceOnUse">
<stop stop-color="#3D4F3B"/>
<stop offset="1" stop-color="#3D4F3B" stop-opacity="0"/>
</linearGradient>
<linearGradient id="paint2_linear_2210_5" x1="1237" y1="0" x2="1237" y2="352" gradientUnits="userSpaceOnUse">
<stop stop-color="#3D4F3B"/>
<stop offset="1" stop-color="#3D4F3B" stop-opacity="0"/>
</linearGradient>
</defs>
</svg>
