<svg width="959" height="959" viewBox="0 0 959 959" fill="none" xmlns="http://www.w3.org/2000/svg">
<path d="M811.481 479.175C818.722 479.175 824.618 473.3 824.343 466.064C821.047 379.327 785.147 296.826 723.544 235.223C658.844 170.523 571.092 134.175 479.592 134.175C388.092 134.175 300.34 170.523 235.64 235.223C174.037 296.826 138.136 379.327 134.841 466.064C134.566 473.3 140.462 479.175 147.703 479.175C154.945 479.175 160.787 473.3 161.084 466.065C164.365 386.285 197.497 310.45 254.182 253.765C313.965 193.983 395.047 160.398 479.592 160.398C564.137 160.398 645.219 193.983 705.001 253.765C761.687 310.45 794.819 386.286 798.1 466.065C798.397 473.3 804.239 479.175 811.481 479.175Z" fill="#303030"/>
<g filter="url(#filter0_f_2219_2)">
<path d="M286.671 193.157C239.815 224.761 201.442 267.393 174.924 317.303C148.406 367.214 134.556 422.875 134.592 479.393L160.815 479.376C160.782 427.154 173.579 375.724 198.081 329.607C222.583 283.49 258.04 244.099 301.334 214.896L286.671 193.157Z" fill="url(#paint0_linear_2219_2)"/>
</g>
<path d="M294.002 204.027C289.953 198.023 281.787 196.419 275.942 200.694C233.945 231.406 199.389 271.257 174.924 317.303C150.459 363.35 136.777 414.291 134.833 466.284C134.562 473.52 140.462 479.389 147.704 479.385C154.945 479.38 160.783 473.503 161.076 466.268C163.009 418.573 175.632 371.86 198.081 329.607C220.53 287.354 252.175 250.747 290.618 222.45C296.449 218.157 298.052 210.03 294.002 204.027Z" fill="url(#paint1_linear_2219_2)"/>
<defs>
<filter id="filter0_f_2219_2" x="104.592" y="163.157" width="226.742" height="346.236" filterUnits="userSpaceOnUse" color-interpolation-filters="sRGB">
<feFlood flood-opacity="0" result="BackgroundImageFix"/>
<feBlend mode="normal" in="SourceGraphic" in2="BackgroundImageFix" result="shape"/>
<feGaussianBlur stdDeviation="15" result="effect1_foregroundBlur_2219_2"/>
</filter>
<linearGradient id="paint0_linear_2219_2" x1="135.092" y1="470.175" x2="313.592" y2="194.675" gradientUnits="userSpaceOnUse">
<stop stop-color="#425A4B"/>
<stop offset="1" stop-color="#66CF7E"/>
</linearGradient>
<linearGradient id="paint1_linear_2219_2" x1="135.092" y1="470.175" x2="313.592" y2="194.675" gradientUnits="userSpaceOnUse">
<stop stop-color="#405548"/>
<stop offset="1" stop-color="#6ADB83"/>
</linearGradient>
</defs>
</svg>
